<?xml version="1.0" encoding="UTF-8" standalone="no"?>
<!-- Created with Inkscape (http://www.inkscape.org/) -->

<svg
   xmlns:dc="http://purl.org/dc/elements/1.1/"
   xmlns:cc="http://creativecommons.org/ns#"
   xmlns:rdf="http://www.w3.org/1999/02/22-rdf-syntax-ns#"
   xmlns:svg="http://www.w3.org/2000/svg"
   xmlns="http://www.w3.org/2000/svg"
   xmlns:sodipodi="http://sodipodi.sourceforge.net/DTD/sodipodi-0.dtd"
   xmlns:inkscape="http://www.inkscape.org/namespaces/inkscape"
   width="4322.8345"
   height="2161.4172"
   id="svg2"
   version="1.1"
   inkscape:version="0.48.2 r9819"
   sodipodi:docname="fighter.svg">
  <defs
     id="defs4">
    <inkscape:path-effect
       effect="spiro"
       id="path-effect3055"
       is_visible="true" />
    <inkscape:path-effect
       effect="spiro"
       id="path-effect3051"
       is_visible="true" />
    <inkscape:path-effect
       effect="spiro"
       id="path-effect3047"
       is_visible="true" />
    <inkscape:path-effect
       effect="spiro"
       id="path-effect3043"
       is_visible="true" />
    <inkscape:path-effect
       effect="spiro"
       id="path-effect3039"
       is_visible="true" />
    <inkscape:path-effect
       effect="spiro"
       id="path-effect3035"
       is_visible="true" />
  </defs>
  <sodipodi:namedview
     id="base"
     pagecolor="#ffffff"
     bordercolor="#666666"
     borderopacity="1.0"
     inkscape:pageopacity="0.0"
     inkscape:pageshadow="2"
     inkscape:zoom="0.7"
     inkscape:cx="580.16978"
     inkscape:cy="1675.438"
     inkscape:document-units="px"
     inkscape:current-layer="layer1"
     showgrid="false"
     units="mm"
     inkscape:window-width="1366"
     inkscape:window-height="716"
     inkscape:window-x="-8"
     inkscape:window-y="22"
     inkscape:window-maximized="1" />
  <metadata
     id="metadata7">
    <rdf:RDF>
      <cc:Work
         rdf:about="">
        <dc:format>image/svg+xml</dc:format>
        <dc:type
           rdf:resource="http://purl.org/dc/dcmitype/StillImage" />
        <dc:title></dc:title>
      </cc:Work>
    </rdf:RDF>
  </metadata>
  <g
     inkscape:label="Layer 1"
     inkscape:groupmode="layer"
     id="layer1"
     transform="translate(0,1109.0551)">
    <path
       style="fill:none;stroke:#000000;stroke-width:1px;stroke-linecap:butt;stroke-linejoin:miter;stroke-opacity:1"
       d="m 104.28571,505.70295 c -18.062925,-1.48074 -5.401493,-3.89535 -3.03045,-4.1124 30.23686,-2.76798 96.40754,-8.74474 96.40754,-8.74474 0,0 37.52671,-10.94159 56.96955,-15.71429 19.44283,-4.7727 51.57214,-13.86729 51.57214,-13.86729 l 80.93837,-13.27557 c 0,0 27.91142,-9.30146 43.69397,-13.69397 15.78256,-4.39252 28.32052,-8.73895 51.01016,-12.43873 22.68963,-3.69978 54.70413,-5.29587 54.70413,-5.29587 0,0 30.65446,2.1324 41.50037,1.25526 10.8459,-0.87713 19.85296,-2.70346 31.4583,-6.13271 11.60534,-3.42924 37.63307,-15.12255 37.63307,-15.12255 0,0 33.05513,-9.34434 49.75489,-12.43872 16.69976,-3.09438 50.24511,-6.13271 50.24511,-6.13271 l 304.28574,-182.85714 54.0108,-0.41842 12.7854,4.53082 -10.2451,56.72443 -29.2349,4.28572 25.5409,4.87745 -21.4286,97.14286 175.7143,-114.28572 41.4286,14.28572 -10,48.74474 37.1429,-21.60188 37.1428,11.42857 -61.4286,94.28571 -14.2857,2.85714 0,17.14286 45.541,7.80638 3.2756,14.21393 -10.2451,27.97969 18.5714,2.85714 -27.1429,64.28572 -18.5714,4.28571 0,34.28572 47.1429,8.57143 88.5714,125.71428 -37.1429,14.28572 -11.4285,-2.85715 -22.8572,-11.42857 -198.5714,-124.28571 -67.1429,2.85714 21.4286,102.85714 -28.5714,7.14286 31.4285,2.85714 21.4286,88.57143 -56.7245,6.2045 -45.7143,-0.66353 c 0,0 -244.74321,-212.51844 -261.18337,-209.58158 -16.44017,2.93686 -66.0459,-1.02907 -89.5098,-5.6425 -23.4639,-4.61342 -48.29659,-20.31689 -48.29659,-20.31689 L 411.42857,519.98866 c 0,0 -128.34122,1.02913 -160.27484,-2.85714 -31.93363,-3.88627 -52.40898,-10 -52.40898,-10 0,0 -63.07437,1.14425 -94.45904,-1.42857 z"
       id="path3007"
       inkscape:connector-curvature="0"
       transform="translate(0,-1109.0551)"
       sodipodi:nodetypes="ssczcczzczzczcccccccccccccccccccccccccccccccccccczzcczcs" />
    <path
       style="fill:none;stroke:#000000;stroke-width:1px;stroke-linecap:butt;stroke-linejoin:miter;stroke-opacity:1"
       d="m 758.62456,383.54876 55.52865,0.59173 -18.153,-4.63234 -37.37565,4.04061"
       id="path3033"
       inkscape:path-effect="#path-effect3035"
       inkscape:original-d="m 758.62456,383.54876 55.52865,0.59173 -18.153,-4.63234 z"
       inkscape:connector-curvature="0"
       transform="translate(0,-1109.0551)"
       sodipodi:nodetypes="cccc" />
    <path
       style="fill:none;stroke:#000000;stroke-width:1px;stroke-linecap:butt;stroke-linejoin:miter;stroke-opacity:1"
       d="m 576.7971,426.98532 c 11.18734,1.12029 22.31796,2.80674 33.33504,5.05075 2.40721,0.64779 4.63848,1.93762 6.40119,3.70033 1.76271,1.76271 3.05254,3.99399 3.70033,6.4012 0.89892,3.34042 0.53243,7.00526 -1.01015,10.10153 l -7.07106,13.13198 c -26.74434,4.30036 -53.7459,7.00052 -80.81221,8.08123 -38.10091,1.5213 -76.3296,-0.17024 -114.14724,-5.05077 -2.90903,-0.52892 -5.58241,-2.25211 -7.2654,-4.68311 -1.683,-2.43099 -2.35488,-5.53984 -1.82597,-8.44887 0.62447,-3.43461 2.93855,-6.52005 6.06092,-8.08123 24.58846,-8.48566 50.00001,-14.58443 75.76143,-18.18274 28.75524,-4.01648 57.98322,-4.91331 86.87312,-2.0203"
       id="path3041"
       inkscape:path-effect="#path-effect3043"
       inkscape:original-d="m 576.7971,426.98532 33.33504,5.05075 c 0,0 2.02917,-12.40811 10.10152,10.10153 8.07235,22.50964 -1.01015,10.10153 -1.01015,10.10153 l -7.07106,13.13198 c 0,0 -48.10808,6.99459 -80.81221,8.08123 -32.70413,1.08663 -114.14724,-5.05077 -114.14724,-5.05077 0,0 -4.83847,-2.01025 -9.09137,-13.13198 -4.2529,-11.12173 6.06092,-8.08123 6.06092,-8.08123 0,0 33.05671,-8.34408 75.76143,-18.18274 42.70473,-9.83865 86.87312,-2.0203 86.87312,-2.0203 z"
       inkscape:connector-curvature="0"
       transform="translate(0,-1109.0551)"
       sodipodi:nodetypes="cczcczczczc" />
    <path
       style="fill:none;stroke:#000000;stroke-width:1px;stroke-linecap:butt;stroke-linejoin:miter;stroke-opacity:1"
       d="m 325.26912,472.44218 -1.01015,38.3858 4.04061,1.01015 -10e-6,-44.44671 -3.03045,5.05076"
       id="path3045"
       inkscape:path-effect="#path-effect3047"
       inkscape:original-d="m 325.26912,472.44218 -1.01015,38.3858 4.04061,1.01015 -10e-6,-44.44671 z"
       inkscape:connector-curvature="0"
       transform="translate(0,-1109.0551)"
       sodipodi:nodetypes="ccccc" />
    <path
       style="fill:none;stroke:#000000;stroke-width:1px;stroke-linecap:butt;stroke-linejoin:miter;stroke-opacity:1"
       d="m 343.45187,468.40158 1.01015,44.4467 3.03046,2.02031 -1.01016,-52.52793 -3.03045,6.06092"
       id="path3049"
       inkscape:path-effect="#path-effect3051"
       inkscape:original-d="m 343.45187,468.40158 1.01015,44.4467 3.03046,2.02031 -1.01016,-52.52793 z"
       inkscape:connector-curvature="0"
       transform="translate(0,-1109.0551)"
       sodipodi:nodetypes="ccccc" />
    <path
       style="fill:none;stroke:#000000;stroke-width:1px;stroke-linecap:butt;stroke-linejoin:miter;stroke-opacity:1"
       d="m 639.9465,499.88962 18.67296,27.1008 122.22846,4.04061 c -9.76481,-9.76481 -17.09089,-21.96834 -26.8557,-31.73315 z"
       id="path3057"
       inkscape:connector-curvature="0"
       transform="translate(0,-1109.0551)"
       sodipodi:nodetypes="ccccc" />
    <path
       style="fill:none;stroke:#000000;stroke-width:1px;stroke-linecap:butt;stroke-linejoin:miter;stroke-opacity:1"
       d="m 643.46717,412.84318 -10.17332,12.12183 115.1574,6.65265 5.12255,-17.76433 z"
       id="path3059"
       inkscape:connector-curvature="0"
       transform="translate(0,-1109.0551)"
       sodipodi:nodetypes="ccccc" />
    <path
       style="fill:none;stroke:#000000;stroke-width:1px;stroke-linecap:butt;stroke-linejoin:miter;stroke-opacity:1"
       d="m 770.74639,431.02593 c 100.82996,8.44822 235.49851,12.52129 311.93411,17.51921 -78.5687,3.58062 -269.65667,-7.86063 -328.58676,-13.89702 z"
       id="path3061"
       inkscape:connector-curvature="0"
       transform="translate(0,-1109.0551)"
       sodipodi:nodetypes="cccc" />
    <path
       style="fill:none;stroke:#000000;stroke-width:1.01099694px;stroke-linecap:butt;stroke-linejoin:miter;stroke-opacity:1"
       d="m 1285.9186,-689.13536 -179.0101,126.09069 -257.34367,6.15221 -3.0515,5.12685 261.41237,-6.15221 169.8673,-120.99362 z"
       id="path3063"
       inkscape:connector-curvature="0"
       sodipodi:nodetypes="ccccccc" />
    <path
       style="fill:none;stroke:#000000;stroke-width:0.73244756px;stroke-linecap:butt;stroke-linejoin:miter;stroke-opacity:1"
       d="m 1327.9766,-624.80989 -22.1782,-13.69059 -17.8058,41.6578 22.6992,13.10358 3.6302,-6.08193 -18.5751,-10.77525 6.5989,-13.50109 14.9719,7.86004 3.0193,-4.85013 -15.9215,-9.23594 5.4935,-9.67442 c 24.4227,17.36946 13.1728,4.51796 18.0676,5.18793 z"
       id="path3065"
       inkscape:connector-curvature="0"
       sodipodi:nodetypes="cccccccccccc"
       inkscape:transform-center-x="-3.6535265"
       inkscape:transform-center-y="8.7696604" />
    <path
       style="fill:none;stroke:#000000;stroke-width:1.01885319px;stroke-linecap:butt;stroke-linejoin:miter;stroke-opacity:1"
       d="m 1283.1094,-781.84668 -9.8442,38.34532 -16.626,2.16615 16.626,5.41539 6.8459,19.49542 6.8781,2.81168 -9.8121,-25.55633 10.7579,-51.98779 z"
       id="path3067"
       inkscape:connector-curvature="0"
       sodipodi:nodetypes="ccccccccc" />
    <path
       style="fill:none;stroke:#000000;stroke-width:1px;stroke-linecap:butt;stroke-linejoin:miter;stroke-opacity:1"
       d="m 627.30473,484.56401 8.18275,6.06091 c 240.95419,-4.51756 423.86682,-9.9672 468.60922,-17.17259 z"
       id="path3069"
       inkscape:connector-curvature="0"
       transform="translate(0,-1109.0551)"
       sodipodi:nodetypes="cccc" />
    <path
       style="fill:none;stroke:#000000;stroke-width:1px;stroke-linecap:butt;stroke-linejoin:miter;stroke-opacity:1"
       d="m 1085.914,577.49805 -240.41632,-9.09138 9.09137,4.04061 232.33505,10.10153 z"
       id="path3071"
       inkscape:connector-curvature="0"
       transform="translate(0,-1109.0551)"
       sodipodi:nodetypes="ccccc" />
    <path
       style="fill:none;stroke:#000000;stroke-width:1px;stroke-linecap:butt;stroke-linejoin:miter;stroke-opacity:1"
       d="m 1212.1831,599.7214 136.3705,88.89343 8.0813,-1.01016 -138.3909,-89.90357 z"
       id="path3073"
       inkscape:connector-curvature="0"
       transform="translate(0,-1109.0551)" />
    <path
       style="fill:none;stroke:#000000;stroke-width:1px;stroke-linecap:butt;stroke-linejoin:miter;stroke-opacity:1"
       d="m 1028.3353,417.89394 c 5.8269,-6.29646 86.2552,-5.81098 147.4823,-7.07107 9.4683,2.69375 13.9397,7.40779 13.1319,10.10154 l 51.5178,-2.02031 c 8.0812,1.62129 16.1625,4.77756 24.2437,9.09137 l -15.1523,1.01015 -13.132,-4.04061 -52.5279,1.01016 -10.1015,-8.08123 c -143.9981,4.89559 -130.6833,2.85758 -145.462,0 z"
       id="path3075"
       inkscape:connector-curvature="0"
       transform="translate(0,-1109.0551)"
       sodipodi:nodetypes="cccccccccc" />
    <path
       style="fill:none;stroke:#000000;stroke-width:1px;stroke-linecap:butt;stroke-linejoin:miter;stroke-opacity:1"
       d="m 471.74124,501.7366 -1.01015,6.06092 c 17.39336,1.38648 36.57089,3.88522 47.47717,7.07107 10.90627,3.18585 8.08122,16.16243 8.08122,16.16243 8.60147,2.99963 6.22935,7.913 7.07107,-2.02029 0,0 3.82718,-16.21414 -11.11169,-20.20306 -14.93887,-3.98891 -33.12516,-4.09135 -50.50762,-7.07107 z"
       id="path3077"
       inkscape:connector-curvature="0"
       transform="translate(0,-1109.0551)"
       sodipodi:nodetypes="cczcczc" />
    <path
       style="fill:none;stroke:#000000;stroke-width:1px;stroke-linecap:butt;stroke-linejoin:miter;stroke-opacity:1"
       d="m 819.23371,384.55891 12.12183,-4.04061 166.67517,-4.04061 75.76149,-12.12183 1.0101,2.0203 -72.731,13.13199 z"
       id="path3099"
       inkscape:connector-curvature="0"
       transform="translate(0,-1109.0551)"
       sodipodi:nodetypes="ccccccc" />
    <path
       style="fill:none;stroke:#000000;stroke-width:0.82165778px;stroke-linecap:butt;stroke-linejoin:miter;stroke-opacity:1"
       d="m 1086.889,-821.23318 -14.1962,65.51144 2.3661,0 14.9848,-69.87888 z"
       id="path3103"
       inkscape:connector-curvature="0" />
    <path
       style="fill:none;stroke:#000000;stroke-width:1px;stroke-linecap:butt;stroke-linejoin:miter;stroke-opacity:1"
       d="m 682.86312,564.36606 c 67.18225,4.75572 148.46096,6.91826 129.09648,1.18347 51.04234,3.44647 -145.34869,-23.49724 -129.09648,-1.18347 z"
       id="path3079"
       inkscape:connector-curvature="0"
       transform="translate(0,-1109.0551)"
       sodipodi:nodetypes="ccc" />
    <path
       style="fill:none;stroke:#000000;stroke-width:1.16199958px;stroke-linecap:butt;stroke-linejoin:miter;stroke-opacity:1"
       d="m 1082.5224,-515.89498 19.9536,83.69709 4.3835,2.85157 -21.5759,-89.46705 z"
       id="path3103-1"
       inkscape:connector-curvature="0" />
  </g>
</svg>
