<?xml version="1.0" encoding="UTF-8" standalone="no"?>
<!-- Created with Inkscape (http://www.inkscape.org/) -->

<svg
   xmlns:dc="http://purl.org/dc/elements/1.1/"
   xmlns:cc="http://creativecommons.org/ns#"
   xmlns:rdf="http://www.w3.org/1999/02/22-rdf-syntax-ns#"
   xmlns:svg="http://www.w3.org/2000/svg"
   xmlns="http://www.w3.org/2000/svg"
   xmlns:sodipodi="http://sodipodi.sourceforge.net/DTD/sodipodi-0.dtd"
   xmlns:inkscape="http://www.inkscape.org/namespaces/inkscape"
   width="4322.8345"
   height="2161.4172"
   id="svg2"
   version="1.1"
   inkscape:version="0.48.2 r9819"
   sodipodi:docname="New document 1">
  <defs
     id="defs4" />
  <sodipodi:namedview
     id="base"
     pagecolor="#ffffff"
     bordercolor="#666666"
     borderopacity="1.0"
     inkscape:pageopacity="0.0"
     inkscape:pageshadow="2"
     inkscape:zoom="1.4142136"
     inkscape:cx="534.70845"
     inkscape:cy="2070.601"
     inkscape:document-units="px"
     inkscape:current-layer="layer1"
     showgrid="false"
     units="mm"
     borderlayer="true"
     fit-margin-top="0"
     fit-margin-left="0"
     fit-margin-right="0"
     fit-margin-bottom="0"
     showborder="true"
     inkscape:snap-bbox="true"
     inkscape:snap-global="true"
     inkscape:window-width="1366"
     inkscape:window-height="716"
     inkscape:window-x="-8"
     inkscape:window-y="22"
     inkscape:window-maximized="1" />
  <metadata
     id="metadata7">
    <rdf:RDF>
      <cc:Work
         rdf:about="">
        <dc:format>image/svg+xml</dc:format>
        <dc:type
           rdf:resource="http://purl.org/dc/dcmitype/StillImage" />
        <dc:title></dc:title>
      </cc:Work>
    </rdf:RDF>
  </metadata>
  <g
     inkscape:label="Layer 1"
     inkscape:groupmode="layer"
     id="layer1"
     transform="translate(0,1109.0551)">
    <path
       style="fill:none;stroke:#000000;stroke-width:1px;stroke-linecap:butt;stroke-linejoin:miter;stroke-opacity:1"
       d="m 226,211.41724 774,0 -2,740 -772,0 z"
       id="path3015"
       inkscape:connector-curvature="0"
       transform="translate(0,-1109.0551)"
       sodipodi:nodetypes="ccccc" />
    <path
       style="fill:none;stroke:#000000;stroke-width:1px;stroke-linecap:butt;stroke-linejoin:miter;stroke-opacity:1"
       d="m 379.65686,280.83145 c 0,0 7.57795,-18.981 19.27208,-16.7071 11.69412,2.27389 16.92771,11.77734 18.36396,20.12132 1.43624,8.34398 -1.78134,13.82124 -4.12133,21.75736 -1.6027,5.43559 -10,14 -10,14 -7.5218,7.15565 -14.66331,14.1374 -23.87868,18.82842 0,0 -12.05345,-5.2583 -17.87868,-9.41421 -5.37253,-3.83294 -13.03875,-9.44473 -17.53553,-16.82843 -4.49678,-7.38369 -7.41417,-12.71303 -5.17157,-27.87868 2.24259,-15.16564 11.16343,-15.95769 16.24264,-18.7071 15.01782,-2.48245 15.85682,5.76146 24.70711,14.82842 z"
       id="path3017"
       inkscape:connector-curvature="0"
       transform="translate(0,-1109.0551)"
       sodipodi:nodetypes="czzsccszzcc" />
    <path
       style="fill:none;stroke:#000000;stroke-width:1px;stroke-linecap:butt;stroke-linejoin:miter;stroke-opacity:1"
       d="m 341.53258,387.99343 -1.41422,340.82547 c -0.0415,-65.49755 1.9344,-284.40126 1.41422,-340.82547 z"
       id="path3021"
       inkscape:connector-curvature="0"
       transform="translate(0,-1109.0551)"
       sodipodi:nodetypes="ccc" />
    <path
       style="fill:none;stroke:#000000;stroke-width:1px;stroke-linecap:butt;stroke-linejoin:miter;stroke-opacity:1"
       d="m 417.193,387.99343 -1.41421,101.82338 z"
       id="path3023"
       inkscape:connector-curvature="0"
       transform="translate(0,-1109.0551)" />
    <path
       style="fill:none;stroke:#000000;stroke-width:1px;stroke-linecap:butt;stroke-linejoin:miter;stroke-opacity:1"
       d="m 414.36457,728.8189 0,-131.52186 z"
       id="path3025"
       inkscape:connector-curvature="0"
       transform="translate(0,-1109.0551)" />
    <path
       style="fill:none;stroke:#000000;stroke-width:1px;stroke-linecap:butt;stroke-linejoin:miter;stroke-opacity:1"
       d="m 413.65746,666.5935 54.44723,0 -41.75432,0.76633 z"
       id="path3029"
       inkscape:connector-curvature="0"
       transform="translate(0,-1109.0551)"
       sodipodi:nodetypes="cccc" />
    <path
       style="fill:none;stroke:#000000;stroke-width:1px;stroke-linecap:butt;stroke-linejoin:miter;stroke-opacity:1"
       d="m 603.8692,-443.16871 67.17513,0 z"
       id="path3031"
       inkscape:connector-curvature="0"
       sodipodi:nodetypes="ccc" />
    <path
       style="fill:none;stroke:#000000;stroke-width:1px;stroke-linecap:butt;stroke-linejoin:miter;stroke-opacity:1"
       d="m 661.14483,594.46861 c 0,0 0.96476,27.31089 4.24265,50.91168 3.2779,23.6008 8.48529,30.4056 8.48529,30.4056 0,0 -9.19239,-7.07107 -10.60661,-53.74012 -1.41421,-46.66905 -2.12133,-27.57716 -2.12133,-27.57716 z"
       id="path3033"
       inkscape:connector-curvature="0"
       transform="translate(0,-1109.0551)"
       sodipodi:nodetypes="czczc" />
    <path
       style="fill:none;stroke:#000000;stroke-width:1px;stroke-linecap:butt;stroke-linejoin:miter;stroke-opacity:1"
       d="m 664.68038,386.57922 c -1.41422,105.35891 -1.41422,106.06602 -1.41422,106.06602 z"
       id="path3035"
       inkscape:connector-curvature="0"
       transform="translate(0,-1109.0551)"
       sodipodi:nodetypes="ccc" />
    <path
       style="fill:none;stroke:#000000;stroke-width:1px;stroke-linecap:butt;stroke-linejoin:miter;stroke-opacity:1"
       d="m 733.97684,387.99343 1.41422,247.48737 z"
       id="path3037"
       inkscape:connector-curvature="0"
       transform="translate(0,-1109.0551)"
       sodipodi:nodetypes="ccc" />
    <path
       style="fill:none;stroke:#000000;stroke-width:1px;stroke-linecap:butt;stroke-linejoin:miter;stroke-opacity:1"
       d="m 813.1728,389.40764 -2.12132,248.90159 z"
       id="path3039"
       inkscape:connector-curvature="0"
       transform="translate(0,-1109.0551)"
       sodipodi:nodetypes="ccc" />
    <path
       style="fill:none;stroke:#000000;stroke-width:1px;stroke-linecap:butt;stroke-linejoin:miter;stroke-opacity:1"
       d="m 811.75859,635.4808 c 0,0 -1.48493,15.16864 -10.60661,20.5061 -9.12168,5.33747 -12.02081,11.3137 -27.57716,10.6066 -14.19801,-0.64536 -12.72792,-1.41421 -12.72792,-1.41421 -22.39986,-11.92816 -21.46093,-23.43121 -26.16296,-31.81981 0,0 13.51227,25.97078 24.04164,29.69849 10.52936,3.72771 24.8104,2.50101 35.35533,-2.12132 10.54494,-4.62233 17.67768,-25.45585 17.67768,-25.45585 z"
       id="path3041"
       inkscape:connector-curvature="0"
       transform="translate(0,-1109.0551)"
       sodipodi:nodetypes="czscczzc" />
    <path
       style="fill:none;stroke:#000000;stroke-width:1px;stroke-linecap:butt;stroke-linejoin:miter;stroke-opacity:1"
       d="m 883.88348,389.40764 -2.12133,260.9224 2.07889,-252.44894 z"
       id="path3043"
       inkscape:connector-curvature="0"
       transform="translate(0,-1109.0551)"
       sodipodi:nodetypes="cccc" />
    <path
       style="fill:none;stroke:#000000;stroke-width:1px;stroke-linecap:butt;stroke-linejoin:miter;stroke-opacity:1"
       d="m 881.76216,646.79451 c 0,0 -6.7868,25.92147 -10.60661,33.94113 -3.81981,8.01966 -4.24264,12.02081 -4.24264,12.02081 0,0 -9.63922,13.35062 -21.21321,19.799 -11.57399,6.44838 -35.35533,12.02081 -35.35533,12.02081 0,0 28.90035,-8.01505 38.89087,-14.84924 9.99052,-6.83419 14.18336,-14.06186 20.5061,-24.74874 6.32274,-10.68688 12.02082,-38.18377 12.02082,-38.18377 z"
       id="path3045"
       inkscape:connector-curvature="0"
       transform="translate(0,-1109.0551)"
       sodipodi:nodetypes="czczczzc" />
    <path
       style="fill:none;stroke:#000000;stroke-width:1px;stroke-linecap:butt;stroke-linejoin:miter;stroke-opacity:1"
       d="m 738.21948,725.99047 -26.87006,-11.31371 -21.2132,-15.55635 -16.97056,-22.62741 -5.65686,-9.8995 16.97056,25.45584 14.14214,15.55635 c 0,0 14.42451,10.50541 21.2132,13.43503 6.78869,2.92962 18.38478,4.94975 18.38478,4.94975 z"
       id="path3047"
       inkscape:connector-curvature="0"
       transform="translate(0,-1109.0551)"
       sodipodi:nodetypes="ccccccczc" />
    <path
       style="fill:none;stroke:#000000;stroke-width:1px;stroke-linecap:butt;stroke-linejoin:miter;stroke-opacity:1"
       d="m 663.97327,490.52391 c -1.7567,-0.76418 -22.59765,-30.26686 -46.66905,-35.35534 -24.0714,-5.08848 -38.25585,8.19078 -47.37615,13.43503 -9.1203,5.24425 -13.8816,10.43408 -17.80624,16.71342 -1.42547,2.28074 -2.74057,4.7052 -4.11407,7.32821 -1.3735,2.62301 -9.19239,24.04163 -9.19239,24.04163 0,0 -8.88556,-31.93872 -21.21321,-42.4264 -12.32765,-10.48768 -32.26804,-18.63993 -46.66904,-18.38478 -14.401,0.25515 -28.79518,8.82834 -38.18377,15.55635 -9.38859,6.72801 -18.38478,21.2132 -18.38478,21.2132 l 19.09189,-22.62742 c 0,0 28.33934,-17.54995 44.54772,-14.14213 16.20838,3.40782 16.32251,3.04853 24.04163,7.07107 7.71912,4.02254 14.58986,7.79775 21.21321,16.97056 6.62335,9.17281 15.55634,36.06245 15.55634,36.06245 0,0 4.59064,-19.88434 19.0919,-36.06245 14.50125,-16.1781 34.03494,-25.05855 48.79036,-26.16295 14.75542,-1.1044 24.91931,5.10443 32.52691,11.3137 7.60759,6.20927 24.74874,25.45585 24.74874,25.45585 z"
       id="path3049"
       inkscape:connector-curvature="0"
       transform="translate(0,-1109.0551)"
       sodipodi:nodetypes="czzszczzzcczzzczzzc" />
    <path
       style="fill:none;stroke:#000000;stroke-width:1px;stroke-linecap:butt;stroke-linejoin:miter;stroke-opacity:1"
       d="m 538.81536,564.06301 c 3.41051,-14.65521 11.56695,-24.66432 20.5061,-37.47665 11.11606,-7.92509 23.10822,-18.75568 39.59798,-14.14214 13.01092,3.62934 14.87409,4.63952 21.92032,14.14214 7.97926,12.73657 9.72088,22.23369 7.07107,42.42641 -2.64981,20.19272 -26.89396,48.60137 -32.52692,57.98275 -5.63296,9.38138 -59.39697,50.91169 -59.39697,50.91169 -32.65781,-24.38535 -46.53499,-41.72795 -65.05382,-60.81118 -17.63114,-23.12285 -19.61202,-34.50801 -22.62742,-46.66905 0,0 -4.00694,-14.84924 1.41421,-29.69849 5.42115,-14.84924 11.07801,-17.67766 20.5061,-23.33452 0,0 11.35297,-5.80545 23.33452,-4.24264 16.26346,2.12132 24.74874,13.43503 24.74874,13.43503 4.24264,5.65685 9.8995,9.19238 14.84925,19.79898 4.94974,10.6066 5.65684,17.67767 5.65684,17.67767 z"
       id="path3051"
       inkscape:connector-curvature="0"
       transform="translate(0,-1109.0551)"
       sodipodi:nodetypes="cccczzccczcsczc" />
    <path
       style="fill:none;stroke:#000000;stroke-width:1px;stroke-linecap:butt;stroke-linejoin:miter;stroke-opacity:1"
       d="m 661.14484,592.34729 c 0,0 -11.24346,23.0276 -26.87005,43.13351 -15.62659,20.10591 -60.01929,59.55747 -75.66043,70.71068 -15.64114,11.1532 -22.62742,16.97056 -22.62742,16.97056 0,2.03589 -67.77844,-54.13174 -84.85281,-74.24622 -17.07437,-20.11448 -37.56867,-50.15857 -37.47666,-50.20457 0,0 37.49183,52.97566 58.68985,73.53911 21.19802,20.56344 64.34673,50.91169 64.34673,50.91169 0,0 66.25044,-51.81457 86.26702,-74.24622 20.01659,-22.43165 38.18377,-56.56854 38.18377,-56.56854 z"
       id="path3053"
       inkscape:connector-curvature="0"
       transform="translate(0,-1109.0551)"
       sodipodi:nodetypes="czzczczczc" />
    <path
       style="fill:none;stroke:#000000;stroke-width:1px;stroke-linecap:butt;stroke-linejoin:miter;stroke-opacity:1"
       d="m 877.12132,666.12435 6.87868,0 z"
       id="path3059"
       inkscape:connector-curvature="0"
       transform="translate(0,-1109.0551)"
       sodipodi:nodetypes="ccc" />
    <path
       style="fill:none;stroke:#000000;stroke-width:1px;stroke-linecap:butt;stroke-linejoin:miter;stroke-opacity:1"
       d="m 341,666.41724 -10,0 z"
       id="path3061"
       inkscape:connector-curvature="0"
       transform="translate(0,-1109.0551)" />
    <path
       style="fill:none;stroke:#000000;stroke-width:1px;stroke-linecap:butt;stroke-linejoin:miter;stroke-opacity:1"
       d="m 882.56546,-719.64746 6.87868,0 z"
       id="path3059-1"
       inkscape:connector-curvature="0"
       sodipodi:nodetypes="ccc" />
    <path
       style="fill:none;stroke:#000000;stroke-width:1px;stroke-linecap:butt;stroke-linejoin:miter;stroke-opacity:1"
       d="m 659.82682,-721.76878 5.46447,0 z"
       id="path3059-1-4"
       inkscape:connector-curvature="0"
       sodipodi:nodetypes="ccc" />
    <path
       style="fill:none;stroke:#000000;stroke-width:1px;stroke-linecap:butt;stroke-linejoin:miter;stroke-opacity:1"
       d="m 415.87498,-721.06167 6.87868,0 z"
       id="path3059-1-0"
       inkscape:connector-curvature="0"
       sodipodi:nodetypes="ccc" />
    <path
       style="fill:none;stroke:#000000;stroke-width:1px;stroke-linecap:butt;stroke-linejoin:miter;stroke-opacity:1"
       d="m 334.5577,-720.35457 6.87868,0 z"
       id="path3059-1-9"
       inkscape:connector-curvature="0"
       sodipodi:nodetypes="ccc" />
    <path
       style="fill:none;stroke:#000000;stroke-width:1px;stroke-linecap:butt;stroke-linejoin:miter;stroke-opacity:1"
       d="m 733.36593,-719.64746 6.87868,0 z"
       id="path3059-1-48"
       inkscape:connector-curvature="0"
       sodipodi:nodetypes="ccc" />
    <path
       style="fill:none;stroke:#000000;stroke-width:1px;stroke-linecap:butt;stroke-linejoin:miter;stroke-opacity:1"
       d="m 807.61214,-718.94035 6.87868,0 z"
       id="path3059-1-8"
       inkscape:connector-curvature="0"
       sodipodi:nodetypes="ccc" />
  </g>
</svg>
